<?xml version="1.0" encoding="UTF-8"?><svg id="Layer_1" xmlns="http://www.w3.org/2000/svg" viewBox="0 0 1144.69 79.8"><defs><style>.cls-1{fill:none;stroke:#000;stroke-miterlimit:10;stroke-width:.25px;}</style></defs><path d="m1143.03,72.29c1.5,2.02,2.01,5.42.36,6.81-1.77,1.49-5.49.2-7.17-2.17-1.47-2.08-1.77-5.55,0-6.88,1.84-1.37,5.22.1,6.81,2.24Z"/><path class="cls-1" d="m1144.54,74.26c.21,2.16-.88,4.98-2.82,5.36-2.18.43-4.86-2.32-5.11-5.08-.21-2.32,1.25-5.17,3.3-5.41,2.19-.25,4.38,2.58,4.63,5.12Z"/><path d="m8.03,3.29c1.5,2.02,2.01,5.42.36,6.81-1.77,1.49-5.49.2-7.17-2.17-1.47-2.08-1.77-5.55,0-6.88,1.84-1.37,5.22.1,6.81,2.24Z"/><path class="cls-1" d="m9.54,5.26c.21,2.16-.88,4.98-2.82,5.36-2.18.43-4.86-2.32-5.11-5.08C1.4,3.23,2.86.37,4.91.14c2.19-.25,4.38,2.58,4.63,5.12Z"/></svg>